<?xml version="1.0" encoding="UTF-8"?>
<svg width="1200pt" height="1200pt" version="1.1" viewBox="0 0 1200 1200" xmlns="http://www.w3.org/2000/svg">
 <path d="m85.992 760.61s74.594-171.52 351.12-62.734c0 0 34.094-31.355 82.32-56.855 0 0 122.17-64.68 241.79 33.324 0 0 42.445 10.453 51.445-11.746 0 0-42.434-273.12-37.285-305.8 0 0 0-18.301-14.16-53.578-14.148-35.281-14.148-35.281-60.445-95.387 0 0-28.297-11.773-117.05 0 0 0-133.75 9.1562-141.48-16.992 0 0-12.852-28.754-27-33.984 0 0-7.7148-14.375-1.2852-20.902 0 0 34.727-86.258 60.457-117.61 0 0 20.566-7.8477 24.434-18.301 0 0 158.21-2.6055 237.94 35.281 0 0 63.023 31.367 90.035 58.812 0 0 97.754 141.13 127.32 190.79 0 0 136.33 198.64 145.34 292.74 0 0-3.8633 3.9258 6.4336 32.664 0 0 38.578 57.516 55.285 156.82 0 0 9.0117 47.051-8.3516 91.488 0 0-71.375 99.312-151.13 95.398 0 0-196.78 188.17-374.26 201.25 0 0-93.898 0-115.77-11.762 0 0-50.16 0-69.457 11.762 0 0-77.172 25.621-83.605 26.914-6.4336 1.3203-68.16 24.84-99.035 15.707-30.867-9.1641-289.37-321-207.06-413.78"/>
</svg>
