<?xml version="1.0" encoding="UTF-8"?>
<svg width="1200pt" height="1200pt" version="1.1" viewBox="0 0 1200 1200" xmlns="http://www.w3.org/2000/svg">
 <g>
  <path d="m1042.1 556.31c-19.664-93.047-45.117-159.84-51.352-175.55 10.055-57.961 11.18-118.43 10.922-149.67-0.13672-18.117-7.1602-35.504-19.641-48.633-46.312-48.867-104.6-78.094-135.26-91.055-14.871-6.375-31.859-5.5117-46.008 2.3438-58.148 32.039-101.32 80.625-121.88 106.76-15 19.031-16.945 44.062-4.6875 60.938 8.6172 11.734 18.383 22.574 29.156 32.367-17.438 48.703 2.3438 80.133 16.125 94.922 8.7305 9.2148 20.867 14.438 33.562 14.438h72.328c-0.39844 3.7969-0.98438 7.7812-1.7578 11.906-2.9258 15.168-7.6484 29.938-14.062 43.992-52.688 117.07-52.969 193.15-44.531 235.73-76.781-46.148-147.54-12.398-173.44 3.5156-79.125-98.016-170.06-113.18-233.3-108.26-42.742 3.4258-84.277 15.855-121.88 36.469-43.781 17.086-83.906 0-84.258-0.16406-6.2461-2.5-13.352 0.38281-16.086 6.5312-2.7344 6.1445-0.125 13.352 5.9141 16.32 2.0391 0.91406 50.391 21.867 104.6 0.1875 0.62891-0.26172 1.2422-0.56641 1.8281-0.91406 34.805-19 73.227-30.438 112.76-33.562 83.461-6.1641 155.37 28.383 213.8 102.7-6.3789 17.527-14.895 34.199-25.359 49.641-3.8398 5.7422-2.2969 13.504 3.4453 17.344 5.7422 3.8398 13.504 2.2969 17.344-3.4453 12.262-18.078 22.086-37.691 29.227-58.336 16.543-11.238 35.09-19.195 54.633-23.438 45.75-9.8438 88.828 3.5156 128.02 39.703l27.539 30.469c4.668 4.9531 12.438 5.2695 17.488 0.71094 5.0547-4.5547 5.543-12.316 1.0977-17.469l-27.352-30.328c-3.8906-6.375-45.844-81.75 31.312-253.12 7.2188-15.883 12.512-32.57 15.773-49.711 1.8555-9.5469 2.8281-19.242 2.9062-28.969 0-6.8984-5.5938-12.492-12.492-12.492h-85.594c-5.793 0.011719-11.336-2.3633-15.328-6.5625-11.719-12.352-22.289-33.562-11.859-66.047l25.664 10.734c9.125 3.8359 19.121 5.1172 28.922 3.707 9.7969-1.4141 19.023-5.4648 26.695-11.723l29.414-23.906c9.875-7.9961 14.961-20.496 13.48-33.117-1.4844-12.621-9.332-23.602-20.789-29.094-11.461-5.4922-24.934-4.7266-35.699 2.0234l-17.438 10.898c-5.2266 3.8906-6.5859 11.145-3.1211 16.664 3.4648 5.5156 10.59 7.4453 16.363 4.4297l17.461-10.898c4.7422-2.9922 10.93-2.2891 14.883 1.6875 2.4102 2.4141 3.6875 5.7383 3.5117 9.1445-0.17188 3.4062-1.7812 6.582-4.4258 8.7383l-29.414 23.906c-4.1836 3.3633-9.1992 5.5312-14.516 6.2695-5.3125 0.73828-10.73 0.023437-15.672-2.0742l-39.398-16.406c-10.133-9.0078-19.293-19.055-27.328-29.977-6.3047-8.6719-2.6719-22.008 4.1719-30.703 19.383-24.633 60.023-70.43 114.3-100.31 7.4258-4.0977 16.328-4.5312 24.117-1.1719 28.875 12.328 83.719 39.844 126.84 85.359 8.1484 8.5312 12.75 19.844 12.867 31.641 0.25781 31.031-0.89062 91.594-11.156 148.62-0.44141 2.3672-0.17969 4.8125 0.75 7.0312 1.1719 2.8594 117.52 287.74 56.555 540.84-0.57422 2.4375-0.41016 4.9922 0.46875 7.3359 0.75 2.0156 17.789 49.664-22.078 87.938-6.0938 4.125-48.609 30.961-91.289 11.414 11.059-5.0938 21.832-10.781 32.273-17.039 5.7422-3.832 7.2891-11.59 3.457-17.332-3.832-5.7422-11.59-7.2891-17.332-3.457-8.2031 5.4609-38.602 19.617-49.617 24.633h-0.21094l-0.375 0.16406c-1.7344 0.89062-173.27 87.68-329.91-26.25-4.6445-3.3516-10.965-3.1406-15.375 0.51562-1.4297 1.1953-146.37 119.53-384.07 86.156-6.875-0.95312-13.215 3.8477-14.168 10.723s3.8477 13.215 10.723 14.168c28.816 4.0625 57.879 6.1055 86.977 6.1172 71.27 0.28906 141.96-12.73 208.45-38.391 51.82-20.32 86.016-42.984 100.43-53.531 86.016 59.109 174.61 62.93 234.61 55.43 36.793-4.5156 72.738-14.344 106.71-29.18 50.766 35.695 109.27 13.289 133.99-4.3594 0.44922-0.33203 0.88281-0.69531 1.2891-1.0781 46.242-43.594 34.711-96.891 30.281-111.73 31.664-135.61 14.32-277.92-5.9531-373.83z"/>
  <path d="m229.01 955.12c3.8164 0.019531 7.4336-1.707 9.8203-4.6875 41.977-53.25 123.98-56.25 124.8-56.25h0.35156c32.016-1.5117 63.555-8.3711 93.305-20.297 3.2109-1.1406 5.8164-3.543 7.2148-6.6523 1.3984-3.1094 1.4648-6.6523 0.18359-9.8125-1.2812-3.1562-3.7969-5.6562-6.9609-6.9141-3.168-1.2617-6.7148-1.1719-9.8125 0.24609-27.125 10.84-55.875 17.074-85.055 18.445-6.0938 0.1875-94.922 3.9844-143.58 65.625-4.2617 5.4258-3.3281 13.277 2.0859 17.555 2.1641 1.75 4.8555 2.7188 7.6406 2.7422z"/>
 </g>
</svg>
