<?xml version="1.0" encoding="UTF-8"?>
<svg width="1200pt" height="1200pt" version="1.1" viewBox="0 0 1200 1200" xmlns="http://www.w3.org/2000/svg">
 <path d="m695 540c-40-90 25-220 215-220 135 0 190 105 190 205 0 150-160 210-160 210s-80 265-325 265c-85 0-135-10-170-15-35 0-65 15-85 15s-145-85-185-195c-65-160-70-285-75-350-5-90 10-150 55-190 30-25 65-60 105-65 45-5 65 15 95 40 25 20 50 50 65 70 5 10 5 25-5 30-70 65-125 65-140 55-25-25-50-10-40 15 10 20 25 95 85 150 70 60 90 115 110 160 10-45 45-210 265-180z"/>
</svg>
