<?xml version="1.0" encoding="UTF-8"?>
<svg width="1200pt" height="1200pt" version="1.1" viewBox="0 0 1200 1200" xmlns="http://www.w3.org/2000/svg">
 <g>
  <path d="m905.34 237.01c-49.199-64.578-123.14-73.934-171.64-68.039v-48.973c0-11.047-8.9453-20-20-20h-226.97c-11.055 0-20 8.9531-20 20v49.902c-39.297-3.8672-116.09-1.3086-165.98 65.34-37.559-1.2305-154.22 3.1836-204.39 94.93-1.6016 2.9219-2.4414 6.1914-2.4609 9.5195l-1.5273 397.59c-0.019532 5.793 2.4609 11.297 6.8164 15.117 4.3555 3.8203 10.176 5.5781 15.879 4.7734 39.055-5.3047 73.574-24.445 96.254-40.047 6.3164 39.477 23.324 115.43 67.496 194.19l29.941 172.11c1.6641 9.582 9.9805 16.574 19.707 16.574h545.49c9.7266 0 18.047-6.9922 19.707-16.574l29.941-172.11c43.605-77.742 60.754-152.82 67.266-192.71 22.684 15.312 56.203 33.434 94.062 38.574 5.6836 0.78125 11.504-0.95703 15.859-4.7461 4.3359-3.7969 6.8359-9.2969 6.8359-15.07l0.003906-397.59c0-1.5039-0.17578-3.0078-0.50781-4.4727-21.605-94.16-160.49-98.816-201.78-98.289zm162.29 475.41c-44.219-13.762-78.848-45.754-79.258-46.121-4.1797-3.9258-9.9414-5.9258-15.605-5.3008-5.7227 0.55469-10.938 3.5352-14.297 8.2031-31.66 43.926-86.66 52.078-87.129 52.148-9.6289 1.2695-16.934 9.2461-17.363 18.934-2.5977 58.77-43.184 95.391-43.516 95.703-8.3398 7.2461-9.2188 19.883-1.9531 28.211 7.2461 8.3398 19.883 9.1602 28.203 1.9453 2.0508-1.7773 46.855-41.523 55.84-108.52 13.559-3.5977 34.031-10.828 54.727-24.156-8.3398 39.957-25.492 100.23-60.176 161.13-1.1328 2.0039-1.9336 4.1914-2.3242 6.4648l-27.637 158.94h-236.39v-67.754c0-11.047-8.9453-20-20-20-11.055 0-20 8.9531-20 20v67.754h-235.47l-27.637-158.95c-0.39063-2.2734-1.1914-4.4609-2.3242-6.4648-34.141-59.941-51.312-119.32-59.797-159.28 19.73 12.195 38.977 18.871 51.926 22.305 8.9648 67.004 53.77 106.75 55.801 108.52 3.7891 3.3008 8.4766 4.9219 13.145 4.9219 5.5664 0 11.133-2.3242 15.078-6.8633 7.2656-8.3281 6.3867-20.957-1.9336-28.211-0.41016-0.35938-40.879-36.27-43.516-95.703-0.42969-9.6875-7.7344-17.668-17.363-18.934-0.54687-0.078124-55.156-7.7734-87.129-52.148-3.3594-4.668-8.5742-7.6445-14.297-8.2031-5.7422-0.61328-11.426 1.3867-15.605 5.3008-0.41016 0.37109-35 32.316-79.16 46.094l1.4062-367.26c48.281-80.137 173.73-69.543 175.02-69.395 7.3438 0.71094 14.59-2.7656 18.652-9.0156 50.859-78.242 150.23-55.078 154.34-54.062 5.9961 1.4922 12.305 0.15625 17.168-3.6406 4.8438-3.7891 7.6758-9.6094 7.6758-15.762v-53.262h186.97v53.262c0 6.2891 2.9492 12.207 7.9883 15.984 5.0195 3.7773 11.523 4.9727 17.578 3.2227 1.0156-0.29297 102.62-28.566 159.45 56.047 3.9648 5.8789 10.469 9.3555 17.832 8.8086 1.4844-0.078125 151.74-7.1758 171.07 64.891z"/>
  <path d="m600.75 605.95c-11.055 0-20 8.9531-20 20v225.12c0 11.047 8.9453 20 20 20 11.055 0 20-8.9531 20-20v-225.12c0-11.047-8.9492-20-20-20z"/>
  <path d="m773.23 559.55c-87.754-38.457-87.656-128.33-87.598-132.4 0.19531-11.016-8.5352-20.129-19.57-20.371-10.742-0.10938-20.195 8.5352-20.43 19.57-0.097657 4.8906-1.2891 120.39 111.54 169.84 2.6172 1.1406 5.332 1.6914 8.0078 1.6914 7.7148 0 15.039-4.4727 18.34-11.984 4.4297-10.117-0.17578-21.914-10.293-26.348z"/>
  <path d="m531.65 406.82c-11.016 0.65234-19.434 10.117-18.77 21.152 0.058594 0.99609 4.9023 100.64-85.957 130.93-10.469 3.4961-16.133 14.824-12.637 25.301 2.793 8.3789 10.586 13.68 18.965 13.68 2.0898 0 4.2188-0.33203 6.3281-1.0352 95.723-31.902 115.92-125.98 113.22-171.26-0.64062-11-9.7617-19.438-21.152-18.762z"/>
 </g>
</svg>
