<?xml version="1.0" encoding="UTF-8"?>
<svg width="1200pt" height="1200pt" version="1.1" viewBox="0 0 1200 1200" xmlns="http://www.w3.org/2000/svg">
 <g>
  <path d="m600 465c0 215 105 425 125 425 15 0 35-20 70-75 30-50 55-95 55-175v-150c-25-10-110-80-85-225-65 20-165 160-165 200z"/>
  <path d="m600 465c0 215-105 425-125 425-15 0-35-20-70-75-30-50-55-95-55-175v-150c25-10 110-80 85-225 65 20 165 160 165 200z"/>
  <path d="m1055 470c0-15 5-35 5-75 0-165-140-235-245-245-35-25-70-40-100-45h-15-200c-5-5-10-5-15-5-30 5-65 25-100 50-105 10-245 80-245 245 0 40 0 60 5 75-20 25-45 75-45 175 0 25 15 50 35 65l120 65c10 5 25 10 40 10 5 0 20-25 20-25v40c0 15-5 25-5 35-5 20-5 35-5 65 0 80 85 150 135 180 15 15 30 20 45 20h230c15 0 30-5 45-15 50-35 130-105 130-180 0-30 0-45-5-65 0-10-5-20-5-35v-40s15 25 20 25c15 0 25-5 40-10l120-65c25-15 35-40 35-65 5-105-20-155-40-180zm-125 230c-55-5-70-80-80-95-10 105-40 155-40 155v55c0 15 5 25 5 35 0 20 5 30 5 55 0 30-40 80-100 120h-230c-60-40-100-90-100-120 0-25 0-35 5-55 0-10 5-20 5-35v-55s-45-55-45-155c-30 50-80 95-80 95l-95-50c0-85 25-125 30-135l15-20-5-35c0-15-5-40-5-65 0-150 160-170 175-170h20l15-10c25-20 50-30 70-35h200c20 5 45 15 70 35l15 10h20c20 0 175 20 175 170 0 30 0 50-5 65l-5 25 15 20c10 15 30 50 30 140z"/>
 </g>
</svg>
