<?xml version="1.0" encoding="UTF-8"?>
<svg width="1200pt" height="1200pt" version="1.1" viewBox="0 0 1200 1200" xmlns="http://www.w3.org/2000/svg">
 <g>
  <path d="m301.05 861.14c-6.8984 0-12.492 5.5938-12.492 12.492v176.7c0.011719 16.312 6.5 31.953 18.035 43.488s27.176 18.023 43.488 18.035h499.83c16.312-0.011718 31.953-6.5 43.488-18.035s18.023-27.176 18.035-43.488v-176.7c-0.28906-6.6953-5.8008-11.973-12.504-11.973s-12.215 5.2773-12.504 11.973v176.7c-0.011719 9.6797-3.8633 18.961-10.707 25.809-6.8477 6.8438-16.129 10.695-25.809 10.707h-499.83c-9.6797-0.011719-18.961-3.8633-25.809-10.707-6.8438-6.8477-10.695-16.129-10.707-25.809v-176.7c-0.011718-6.9023-5.6133-12.492-12.516-12.492z"/>
  <path d="m94.758 363.05c1.8086 0.97266 3.8281 1.4805 5.8828 1.4766 4.6211-0.003907 8.8672-2.5547 11.039-6.6328 0.25781-0.49219 27.469-49.781 116.18-62.766 6.6289-1.2148 11.102-7.4609 10.125-14.129-0.98047-6.6641-7.0625-11.359-13.758-10.621-101.06 14.789-133.29 73.266-134.62 75.75-3.2461 6.0977-0.9375 13.672 5.1562 16.922z"/>
  <path d="m107.3 808.15c38.391-24.164 75-66.75 91.992-88.148 14.668 17.871 30.809 34.477 48.258 49.641l45.422 39.352 0.21094 0.16406s0 0.11719 0.16406 0.16406c0.44531 0.35156 44.32 35.883 62.297 70.125 2.1602 4.1211 6.4336 6.7031 11.086 6.7031 2.0234-0.003907 4.0156-0.49609 5.8125-1.4297 6.1055-3.2266 8.4492-10.781 5.25-16.898-19.992-38.086-64.898-74.859-68.578-77.836l-45.141-39.234c-19.785-17.137-37.785-36.234-53.719-57l-1.2656-1.6406c-32.906-42.516-23.93-97.547-23.93-98.25 0.90234-6.6562-3.6172-12.84-10.234-14.004-6.6172-1.1641-12.973 3.1016-14.398 9.668-0.44531 2.5781-10.148 60.117 22.992 109.95-13.758 17.625-51.562 63.492-89.625 87.516-5.3867 3.8477-6.8359 11.234-3.3008 16.832 3.5312 5.5977 10.82 7.4688 16.613 4.2617z"/>
  <path d="m236.72 333c4.1953 5.4844 12.043 6.5312 17.531 2.3438 32.555-24.633 46.711-44.531 49.055-48.07 2.3438-2.9766 53.906-69.633 132.12-62.789 4.8984 0.91406 38.695 7.3828 59.695 17.461 3.0078 1.5938 6.5352 1.8906 9.7695 0.82422 3.2344-1.0625 5.8945-3.3984 7.3672-6.4688 1.4727-3.0664 1.6328-6.6055 0.44141-9.793-1.1875-3.1914-3.625-5.7578-6.75-7.1094-14.789-7.0312-34.148-12.445-48.258-15.75 12.469-20.32 31.711-57.938 35.695-101.98 0.47266-6.7773-4.5469-12.699-11.312-13.332-6.7656-0.63672-12.805 4.2383-13.602 10.988-4.2422 46.453-28.289 85.992-37.688 99.891-89.484-3.9609-145.31 70.312-147.77 73.477-0.078124 0.11328-0.14844 0.23047-0.21094 0.35156-0.082031 0.089844-0.16016 0.18359-0.23438 0.28125 0 0.1875-12.328 18.75-43.453 42.188-5.4688 4.1797-6.5391 11.992-2.3906 17.484z"/>
  <path d="m394.38 647.11c-5.3125 4.0938-6.457 11.648-2.5898 17.129 3.8633 5.4805 11.363 6.9414 17.004 3.3086 150-105.8 138.07-264.84 137.48-271.48-0.59375-6.8789-6.6562-11.973-13.535-11.379s-11.973 6.6562-11.379 13.535c0.14062 1.5 11.367 151.27-126.98 248.88z"/>
  <path d="m467.88 909.87c1.6055 0.011718 3.1953-0.28125 4.6875-0.86719 27.633-12.383 52.004-31.031 71.18-54.469 4.3945-5.3281 3.6406-13.207-1.6875-17.602-5.3281-4.3945-13.207-3.6406-17.602 1.6875-16.598 20.129-37.535 36.242-61.242 47.133-5.6055 2.2031-8.8398 8.0977-7.6914 14.008 1.1484 5.9141 6.3555 10.164 12.379 10.109z"/>
  <path d="m972.14 295.12c87.656 12.82 115.03 60.68 116.2 62.836 2.1914 4.043 6.418 6.5586 11.016 6.5625 2.0547 0.003906 4.0742-0.50391 5.8828-1.4766 6.0938-3.25 8.4023-10.824 5.1562-16.922-1.3359-2.4844-33.562-60.938-134.62-75.75-6.6953-0.73828-12.777 3.957-13.758 10.621-0.97656 6.668 3.4961 12.914 10.125 14.129z"/>
  <path d="m1000.8 720c17.062 21.398 53.602 63.984 91.992 88.148 5.793 3.207 13.082 1.3359 16.613-4.2617 3.5352-5.5977 2.0859-12.984-3.3008-16.832-38.062-23.977-75.844-69.891-89.602-87.516 33.117-49.828 23.438-107.37 22.969-109.95-1.5547-6.4062-7.8086-10.508-14.301-9.3828-6.4922 1.125-11 7.0938-10.309 13.648 0 0.5625 9.1172 55.688-23.836 98.203l-1.2422 1.6406c-15.902 20.766-33.859 39.871-53.602 57.023l-45.141 39.234c-3.6797 2.9766-48.586 39.844-68.578 77.836-3.2344 6.1172-0.90234 13.699 5.2148 16.934 6.1172 3.2344 13.699 0.90234 16.934-5.2148 17.977-34.242 61.852-69.773 62.297-70.125 0 0 0-0.11719 0.16406-0.16406l0.21094-0.16406 45.305-39.352c17.434-15.191 33.562-31.82 48.211-49.711z"/>
  <path d="m699.52 243.28c1.875 0 3.7266-0.42578 5.4141-1.2422 20.953-10.055 54.82-16.547 59.719-17.461 77.789-6.8203 129.54 59.438 132.09 62.766 2.5547 3.3281 16.406 23.438 49.055 48.094 2.6328 2.1562 6.0312 3.1484 9.4102 2.7461 3.3789-0.40234 6.4453-2.1641 8.5-4.875 2.0547-2.7148 2.9141-6.1484 2.3828-9.5078s-2.4102-6.3594-5.1992-8.3086c-30.938-23.438-43.195-41.789-43.453-42.188-0.25781-0.39844-0.16406-0.1875-0.23438-0.30469s0-0.23438-0.21094-0.32812c-2.3438-3.2578-58.078-77.508-147.8-73.453-9.375-13.852-33.422-53.25-37.617-99.703-0.79688-6.75-6.8359-11.625-13.602-10.988-6.7656 0.63281-11.785 6.5547-11.312 13.332 3.9844 44.039 23.227 81.656 35.695 101.98-14.062 3.3047-33.469 8.6484-48.258 15.75-5.2539 2.5352-8.0625 8.3633-6.7656 14.051 1.293 5.6875 6.3477 9.7266 12.18 9.7383z"/>
  <path d="m791.2 667.55c2.7031 2.082 6.1367 2.9688 9.5078 2.4609 3.375-0.51172 6.3906-2.375 8.3555-5.1641 1.9688-2.7852 2.7109-6.2539 2.0586-9.6016-0.65234-3.3477-2.6406-6.2852-5.5078-8.1328-137.79-97.219-127.12-247.15-126.98-248.91 0.58984-6.8789-4.5117-12.934-11.391-13.523-6.8789-0.58984-12.934 4.5117-13.523 11.391-0.58594 6.7266-12.492 165.68 137.48 271.48z"/>
  <path d="m727.55 909c6.3477 2.2227 13.316-0.97266 15.777-7.2266 2.4648-6.2578-0.45703-13.344-6.6133-16.047-23.742-10.812-44.684-26.93-61.219-47.109-2.0703-2.6797-5.1367-4.4062-8.5039-4.7812-3.3633-0.375-6.7344 0.63281-9.3438 2.7891s-4.2305 5.2812-4.4961 8.6562c-0.26172 3.3789 0.85937 6.7148 3.1016 9.25 19.207 23.453 43.621 42.102 71.297 54.469z"/>
  <path d="m600 1043.5c6.9141 0 12.516-5.6016 12.516-12.516v-51.562c0.14844-3.4102-1.1055-6.7344-3.4648-9.1992-2.3594-2.4648-5.625-3.8594-9.0391-3.8594-3.4141 0-6.6797 1.3945-9.0391 3.8594-2.3594 2.4648-3.6133 5.7891-3.4648 9.1992v51.562c-0.007812 3.3164 1.3086 6.5 3.6523 8.8477 2.3398 2.3477 5.5234 3.668 8.8398 3.668z"/>
  <path d="m600 902.06c3.3164 0.007812 6.5-1.3086 8.8477-3.6523 2.3477-2.3398 3.668-5.5234 3.668-8.8398v-348.42c-0.28906-6.6953-5.8008-11.973-12.504-11.973s-12.215 5.2773-12.504 11.973v348.42c-0.007812 3.3164 1.3086 6.4961 3.6523 8.8398s5.5234 3.6602 8.8398 3.6523z"/>
 </g>
</svg>
