<?xml version="1.0" encoding="UTF-8"?>
<svg width="1200pt" height="1200pt" version="1.1" viewBox="0 0 1200 1200" xmlns="http://www.w3.org/2000/svg">
 <path d="m905.2 237c-49.199-64.602-123-74-171.6-68l0.003907-49c0-11-9-20-20-20h-227c-11 0-20 9-20 20v50c-39.199-4-116-1.3984-166 65.199-37.398-1.1992-154.2 3.1992-204.4 95-1.6016 2.8008-2.3984 6.1992-2.3984 9.4023l-1.4023 397.6c-0.19922 5.8008 2.3984 11.398 6.8008 15.199 4.1992 3.8008 10 5.6016 15.801 4.8008 39-5.3984 73.602-24.402 96.199-39.801 6.3984 39.602 23.602 115.4 67.602 194l29.801 172c1.7969 9.6016 9.9961 16.602 19.797 16.602h252.28v-107.75c0-11.047 8.9453-20 20-20s20 8.9531 20 20l-0.003906 107.75h253.12c9.8008 0 18.199-7 19.801-16.598l30-172c43.398-77.602 60.602-152.6 67.199-192.6 22.801 15.199 56.398 33.199 94 38.402 5.8008 0.80078 11.602-1 16-4.8008 4.1992-3.8008 6.8008-9.1992 6.8008-15v-397.6c0-1.5977-0.19922-3-0.60156-4.3984-21.598-94.203-160.4-99.004-201.8-98.402zm-465.69 359.85c-2.1094 0.70312-4.2383 1.0352-6.3281 1.0352-8.3789 0-16.172-5.3008-18.965-13.68-3.4961-10.48 2.168-21.805 12.637-25.301 90.859-30.285 86.016-129.93 85.957-130.93-0.66406-11.035 7.7539-20.496 18.77-21.152 11.387-0.67188 20.508 7.7656 21.152 18.77 2.6953 45.273-17.5 139.35-113.22 171.25zm181.17 254.22c0 11.047-8.9453 20-20 20-11.055 0-20-8.9531-20-20v-225.12c0-11.047 8.9453-20 20-20 11.055 0 20 8.9531 20 20zm162.77-265.17c-3.3008 7.5117-10.625 11.984-18.34 11.984-2.6758 0-5.3906-0.54687-8.0078-1.6914-112.83-49.453-111.64-164.95-111.54-169.84 0.23438-11.035 9.6875-19.676 20.43-19.57 11.035 0.24219 19.766 9.3555 19.57 20.371-0.058594 4.0742-0.15625 93.945 87.598 132.4 10.117 4.4336 14.727 16.23 10.293 26.348z"/>
</svg>
