<?xml version="1.0" encoding="UTF-8"?>
<svg width="1200pt" height="1200pt" version="1.1" viewBox="0 0 1200 1200" xmlns="http://www.w3.org/2000/svg">
 <g>
  <path d="m644.72 409.27v-0.14062c-0.007812-0.054688-0.007812-0.10938 0-0.16406-6.4336-19.637-17.66-37.359-32.672-51.562-5.1758-4.5938-13.102-4.1211-17.695 1.0547s-4.1211 13.102 1.0547 17.695c0.1875 0.16406 18.211 16.711 25.336 40.125 45.422 166.15-46.875 275.32-47.836 276.38-1.3594 1.5742-2.3164 3.457-2.7891 5.4844-21.633 96.094-24.211 236.72-24.305 242.65-0.0625 3.6133 1.4414 7.0742 4.125 9.4922 19.449 17.375 34 39.551 42.188 64.312 5.6367 16.652 2.832 35.008-7.5234 49.219-10.367 14.605-27.207 23.238-45.117 23.133h-5.8594c-4.2656 0.007812-8.4062-1.457-11.719-4.1484-7.332-5.9336-16.387-9.3359-25.812-9.6953s-18.715 2.3438-26.477 7.7031l-4.0781 2.8359c-3.0898 2.1602-6.7734 3.3164-10.547 3.3047h-208.55c-3.8828 0-7.0312-3.1484-7.0312-7.0312-0.007812-3.3203 2.3086-6.1953 5.5547-6.8906 86.719-16.242 142.22-56.695 173.65-87.75 19.574-19.473 28.246-47.371 23.156-74.508-53.344-290.34-29.812-566.23-29.555-569.11 0.082031-0.875 0.082031-1.75 0-2.625-15-122.13 71.836-134.67 75.492-135.12 1.1719-0.14062 2.3164-0.44922 3.3984-0.91406l94.664-39.844c77.934-33.039 161.73-50.043 246.38-49.992h7.8516c6.6953-0.28906 11.973-5.8008 11.973-12.504s-5.2773-12.215-11.973-12.504h-7.8516c-88-0.097657-175.11 17.531-256.15 51.844l-93.188 39.352c-27.594 5.2109-52.391 20.188-69.844 42.188-22.969 29.273-31.641 69.422-25.781 119.34-1.7344 21.328-22.055 291.14 29.953 574.36 3.6055 19.004-2.4336 38.559-16.125 52.219-28.945 28.617-80.297 65.883-160.69 80.977-10.496 2.0742-19.266 9.25-23.379 19.129s-3.0273 21.16 2.8945 30.07 15.902 14.281 26.602 14.316h208.43c8.875 0.019532 17.543-2.6953 24.82-7.7812l4.0781-2.8359c3.3008-2.2734 7.2461-3.418 11.25-3.2656 4.0039 0.15234 7.8516 1.5938 10.969 4.1094 7.7617 6.3125 17.461 9.7656 27.469 9.7734h5.8594c25.969 0.10938 50.359-12.441 65.367-33.633 15.141-20.746 19.227-47.57 10.945-71.883-8.918-26.965-24.312-51.332-44.836-70.969 0.70312-26.93 4.6875-146.06 22.945-229.1 14.93-18.445 96.797-129.8 50.977-297.09z"/>
  <path d="m966.42 360.35c-4.6523 2.9414-9.5547 5.4648-14.648 7.5469-80.836 32.883-179.91 38.039-248.79 36.492-3.3945-0.19922-6.7266 0.98828-9.2266 3.293-2.5 2.3086-3.9531 5.5312-4.0234 8.9297-0.074219 3.4023 1.2383 6.6836 3.6367 9.0977 2.3984 2.4102 5.6758 3.7422 9.0742 3.6875 7.0156 0.15625 14.32 0.24219 21.914 0.25781 69.375 0 160.41-7.4531 236.86-38.602 6.4648-2.6406 12.688-5.8477 18.586-9.5859 2.8594-1.7461 4.8945-4.5664 5.6523-7.832 0.75781-3.2617 0.17578-6.6914-1.6211-9.5195-1.793-2.8281-4.6484-4.8164-7.9219-5.5195-3.2734-0.70312-6.6953-0.0625-9.4922 1.7773z"/>
  <path d="m492.45 476.11c-3.3008-0.43359-6.6367 0.46875-9.2773 2.4961-2.6367 2.0312-4.3594 5.0312-4.7852 8.332-14.273 111.54 44.531 173.55 47.016 176.13 4.8398 4.8164 12.648 4.8633 17.547 0.10547 4.8984-4.7578 5.0781-12.562 0.40625-17.543-0.53906-0.53906-52.922-55.805-40.172-155.53 0.88672-6.8242-3.9141-13.082-10.734-13.992z"/>
  <path d="m865.15 232.97c-6.6953 0.28906-11.973 5.8008-11.973 12.504s5.2773 12.215 11.973 12.504c13.516 0.042969 27.023 0.82422 40.453 2.3438 0.46094 0.023438 0.92188 0.023438 1.3828 0 6.5898-0.074218 11.992-5.2422 12.355-11.82 0.36719-6.582-4.4336-12.316-10.973-13.117-14.328-1.5664-28.734-2.3477-43.148-2.3438z"/>
  <path d="m624.7 299.39c-5.3281 4.3867-6.0859 12.262-1.6992 17.59 4.3867 5.3281 12.262 6.0859 17.59 1.6992 0.63281-0.49219 62.695-50.789 160.73-59.438 6.4531-1.0547 11.004-6.8945 10.453-13.41-0.55078-6.5117-6.0234-11.504-12.562-11.457-105.75 9.375-171.75 62.742-174.52 65.016z"/>
 </g>
</svg>
