<?xml version="1.0" encoding="UTF-8"?>
<svg width="1200pt" height="1200pt" version="1.1" viewBox="0 0 1200 1200" xmlns="http://www.w3.org/2000/svg">
 <path d="m169.95 511.9c78.492-12.141 235.52-39.891 355.52-82.992 5.668-2.0781 10.234-6.3906 12.633-11.93 15.141-34.172 33.891-54.023 35.156-55.453 5.1406-5.1406 12.609-7.1914 19.652-5.4023 7.0469 1.7852 12.633 7.1484 14.699 14.117 2.0703 6.9688 0.32031 14.512-4.6094 19.855-4.4102 4.9727-8.4297 10.277-12.023 15.867-3.4297 5.1758-5.4922 11.133-6 17.32-3.9375 45.961-7.6641 162.09 44.93 232.97 3.6914 4.8672 9.5664 7.5664 15.664 7.1992 6.0977-0.36719 11.605-3.7539 14.688-9.0273 10.738-18.07 22.621-35.434 35.578-51.984 33.07-42.375 44.859-85.266 35.156-127.55-1.3359-5.2812-0.59766-10.875 2.0664-15.629 2.6641-4.7539 7.0508-8.3008 12.254-9.918 5.3984-1.5156 11.184-0.76953 16.02 2.0781 4.8359 2.8438 8.3008 7.5352 9.5977 12.992 9.1172 38.086 9.1406 97.359-42.445 163.45-18.496 23.484-34.496 48.832-47.742 75.633-6.4141 13.258-9.2266 27.969-8.1562 42.656l15.422 222.28c0.63672 9.168-1.3359 18.324-5.6953 26.414-16.406 30.469-30.656 67.055-19.359 117.45 2.3711 10.406 8.2109 19.695 16.559 26.344 8.3477 6.6484 18.707 10.258 29.379 10.242h331.08c11.941-0.007812 23.23-5.4609 30.66-14.809 7.4297-9.3516 10.188-21.578 7.4961-33.215-1.8477-7.4453-5.7891-14.207-11.359-19.48-5.5703-5.2773-12.535-8.8438-20.07-10.285-41.109-8.3438-121.29-31.828-166.41-92.883-12.609-17.219-18.613-38.395-16.922-59.672l49.219-656.25c3.3477-44.309-10.98-88.141-39.852-121.92-28.871-33.773-69.938-54.75-114.23-58.34-11.062-0.92188-21.996-2.9961-32.625-6.1875l-27.445-8.1328c-16.965-5.0117-34.531-7.7148-52.219-8.0391l-494.53-8.5547c-8.1562-0.12109-16.023 3.0391-21.832 8.7656-5.8125 5.7266-9.082 13.543-9.082 21.703v110.6c0 4.7852 1.9023 9.375 5.2852 12.762 3.3867 3.3828 7.9766 5.2852 12.762 5.2852h62.438c63.164 0 124.71 17.953 179.2 49.898 20.469 11.969 42.223 21.586 64.852 28.664 4.9297 1.4883 9.1484 4.7266 11.855 9.1094s3.7188 9.6055 2.8398 14.68c-1.1133 5.7656-4.6328 10.785-9.6797 13.793-5.043 3.0078-11.133 3.7188-16.734 1.957-26.207-8.1641-51.379-19.348-75-33.328-48.273-28.512-103.31-43.555-159.38-43.57h-60.328c-4.7852 0-9.375 1.9023-12.762 5.2852-3.3828 3.3867-5.2852 7.9766-5.2852 12.762v200.32c-0.003906 12.434 5.4297 24.246 14.867 32.34 9.4414 8.0938 21.945 11.656 34.234 9.7539z"/>
</svg>
